<?xml version="1.0" encoding="UTF-8"?>
<svg id="Layer_1" data-name="Layer 1" xmlns="http://www.w3.org/2000/svg" viewBox="0 0 63.64 27.22">
  <defs>
    <style>
      .cls-1 {
        fill: none;
      }

      .cls-2 {
        fill: #d0be9d;
      }

      .cls-3 {
        fill: #d2a636;
      }
    </style>
  </defs>
  <path class="cls-3" d="M63.37,11.95c-.41-.8-1.25-1.12-1.97-1.4-.61-.23-1.1-.3-2-.43-.82-.11-1.38-.15-1.74-.16-1.13-.08-1.79-.28-3.55-.67-1.17-.26-3.2-.74-4.79-1.02-2.07-.38-3.66-.48-4.76-.56-5.88-.38-10.49.46-11.51.66-2.77.54-5.12,1.28-6.62,1.76-1.31.43-2.41.82-3.22,1.12.07-.28.16-.71.2-1.23.08-1.41-.31-2.46-.97-4.15-.39-1.02-.66-1.49-.99-1.92-.31-.43-.61-.71-.89-.99-.99-.92-1.9-1.43-2.51-1.76-.54-.31-.99-.54-1.64-.77-1.23-.41-2.23-.43-2.48-.43-.61,0-1.4,0-2.33.38-.95.38-1.54.95-1.71,1.12-.26.26-.62.79-1.33,1.81-.23.34-.43.62-.57.82,0,.13-.02.26-.02.38-.08.03-.21.1-.33.18-.25.18-.38.41-.41.48-.15.28-.43.53-1.02.97-.66.49-1.36.85-2.1,1.18-1.51.66-2.36.97-2.36.97,0,0-.59.21-1.18.71-.13.1-.3.25-.43.49-.1.21-.13.39-.15.53.2.03.46.08.8.13,1.02.13,1.79.07,2.58,0,2.23-.2,3.35-.3,4.42-.53.84-.18,1.54-.36,2.04-.51,1.05.25,1.92.3,2.53.28,1.63-.03,2.45-.05,2.76-.13.18-.05.64-.2,1.05.03.08.05.36.21.41.53.07.41-.28.71-.33.76-.21.18-.43.23-.51.26-.59.13-1.13.48-1.72.66-.64.21-1.95.71-3.19,1.56-1.18.8-1.79,1.56-2.02,1.89-.46.61-.62,1.03-.67,1.15-.1.25-.26.74-.3,1.92-.02.49-.05,1.28.1,2.31.05.39.25,1.66.87,3.2.18.48.36.85.49,1.12.28.16.74.43,1.33.67,1.67.72,3.12.84,3.69.87,5.11.38,2.2.61,9.37.87,2.63.1,5.61.21,9.87.16,2.58-.02,5.81-.05,10.05-.36,4.73-.34,7.37-.54,10.87-1.4,2.92-.69,5.25-1.56,6.85-2.22.1-.39.84-3.41.92-3.73.33-1.31.48-2.68.95-3.94.15-.39.41-1.08.43-2,.02-.48.03-1.05-.26-1.61ZM11.23,4.22c-.38-.02-.57-.33-.61-.36-.05-.07-.16-.25-.13-.49.05-.28.28-.43.33-.46.02-.02.26-.16.54-.1.33.07.67.41.61.82-.07.36-.41.59-.74.59Z"/>
  <path class="cls-1" d="M11.62,3.2s-.1.05-.15.03c-.1-.02-.18-.11-.16-.16,0-.05.07-.05.1-.07.11,0,.25.15.21.2Z"/>
  <path class="cls-1" d="M11.36,2.81c-.28-.07-.53.08-.54.1-.05.03-.28.18-.33.46-.03.25.08.43.13.49.03.03.23.34.61.36.33,0,.67-.23.74-.59.07-.41-.28-.76-.61-.82ZM11.48,3.23c-.1-.02-.18-.11-.16-.16,0-.05.07-.05.1-.07.11,0,.25.15.21.2-.02.05-.1.05-.15.03Z"/>
  <path class="cls-1" d="M11.62,3.2s-.1.05-.15.03c-.1-.02-.18-.11-.16-.16,0-.05.07-.05.1-.07.11,0,.25.15.21.2Z"/>
  <path class="cls-2" d="M11.62,3.2s-.1.05-.15.03c-.1-.02-.18-.11-.16-.16,0-.05.07-.05.1-.07.11,0,.25.15.21.2Z"/>
</svg>